<svg xmlns="http://www.w3.org/2000/svg" width="480" height="480" viewBox="0 0 240 240" role="img" aria-label="Heap, a smooth white mound-shaped creature with a lingonberry on top"><defs><radialGradient id="g1" cx="0.42" cy="0.32" r="0.8"><stop offset="0" stop-color="#FFFFFF"></stop><stop offset="0.65" stop-color="#FBFCFB"></stop><stop offset="1" stop-color="#DCE6E0"></stop></radialGradient></defs><ellipse cx="120" cy="212" rx="76" ry="9" fill="#000000" fill-opacity="0.18"></ellipse><ellipse cx="44" cy="160" rx="14" ry="10" fill="url(#g1)" transform="rotate(-35 44 160)"></ellipse><ellipse cx="196" cy="160" rx="14" ry="10" fill="url(#g1)" transform="rotate(35 196 160)"></ellipse><path d="M46 190 C 44 128, 78 76, 120 76 C 162 76, 196 128, 194 190 C 194 204, 184 210, 170 210 H 70 C 56 210, 46 204, 46 190 Z" fill="url(#g1)"></path><ellipse cx="89.0" cy="155.0" rx="9.0" ry="5.5" fill="#F4A9A0"></ellipse><ellipse cx="151.0" cy="155.0" rx="9.0" ry="5.5" fill="#F4A9A0"></ellipse><circle cx="102.0" cy="138" r="7.5" fill="#1F1D1A"></circle><circle cx="138.0" cy="138" r="7.5" fill="#1F1D1A"></circle><circle cx="104.5" cy="135.0" r="2.5" fill="#FFFFFF"></circle><circle cx="140.5" cy="135.0" r="2.5" fill="#FFFFFF"></circle><path d="M111.0 154.0 Q120 163.0 129.0 154.0" fill="none" stroke="#1F1D1A" stroke-width="3.0" stroke-linecap="round"></path><path d="M118 72.0 C 120.0 64.0, 126.0 58.0, 134.0 56.0 C 130.0 64.0, 124.0 68.0, 118 72.0 Z" fill="#CFE3D6"></path><circle cx="116.0" cy="78.0" r="9.0" fill="#B3372A"></circle><circle cx="113.0" cy="75.0" r="2.6" fill="#FFFFFF" fill-opacity="0.8"></circle></svg>